<svg version="1.2" xmlns="http://www.w3.org/2000/svg" viewBox="0 0 1600 298" width="1600" height="298">
	<title>masonite-vector-logo-svg</title>
	<style>
		.s0 { fill: #53565b } 
		.s1 { fill: #92c83e } 
	</style>
	<path id="Layer" fill-rule="evenodd" class="s0" d="m673.1 87.7h25.6l69.3 158.5h-29.3l-16-38.1h-55.2l10.1-24.5h34.9l-27.2-62.9-53.3 125.5h-28.3zm-154.1 119.6h-0.8l-49.6-74.3v113.2h-27.5v-158.5h29.6l48.3 74.8 48.3-74.8h29.6v158.5h-27.8v-113.8zm372-6.3c0 30.1-23.2 47.6-56.5 47.6-24.3 0-47.2-8.2-66.1-25.3l16.8-20c15.2 13.1 30.4 20.6 50.1 20.6 17.1 0 28-8 28-20.3 0-11.4-6.1-17.6-35.7-24.5-33.9-8-52.8-17.8-52.8-47.4 0-27.4 22.6-46.1 54.1-46.1 23.2 0 41.6 7.2 57.6 20l-14.9 21c-14.2-10.6-28.6-16.2-43-16.2-16.2 0-25.8 8.2-25.8 18.9 0 12.2 7.2 17.8 37.6 25 33.6 8 50.9 20 50.6 46.7zm12.6-33.9c0-44.7 34.4-82 83.2-82 48.8 0 82.6 37 82.6 81.8 0 44.7-34.4 82-83.2 82-48.5 0-82.6-37-82.6-81.8zm29.3-0.2c0 30.9 22.4 56.4 53.9 56.4 31.4 0 53.3-25 53.3-56.2 0-30.9-22.4-56.4-53.9-56.4-31.4 0-53.3 25-53.3 56.2zm265.9 30.3l-0.3-0.3v0.3zm-0.3-0.3v-109.2h27.5v158.5h-23.2l-87.5-112.6v112.6h-27.4v-158.5h25.8zm176.3-83.3v132.7h-28v-132.7h-50.1v-25.8h128.8v25.8zm-124.8-25.8h27.7v158.5h-27.7zm311.2 0v25h-89.9v108.7h89.9v24.8h-117.9v-158.5zm-71.7 66.3h49.3v24.5h-49.3z"/>
	<path id="Layer" fill-rule="evenodd" class="s1" d="m0 297.3v-297.2l220.8 128.1v169.7h-40v-146.3l-140.8-81.7v227.4zm90.4 0.6v-168.9l40 23.2v145.7zm181.3 0v-228.6l-50.9 29.6-39.7-22.9 130.4-75.7v297.6z"/>
	<path id="Layer" fill-rule="evenodd" class="s0" d="m1586.1 248.1c-7.6 0-13.8-6-13.8-13.4 0-7.3 6.2-13.3 13.8-13.3 7.7 0 13.9 6 13.9 13.3 0 7.4-6.2 13.4-13.9 13.4zm10.2-13.2c0-5.8-4.6-10.5-10.2-10.5-5.6 0-10.1 4.7-10.1 10.5 0 5.8 4.5 10.5 10.1 10.5 5.6 0 10.2-4.7 10.2-10.5zm-9.9-7.6c3.7 0 5.9 1 5.9 4.5 0 2.7-1.6 3.7-4 4l4 6.7h-3l-3.7-6.4h-1.6v6.4h-2.9v-15.2zm-2.4 6.1h2.6c1.6 0 3-0.3 3-2.1 0-1.6-1.6-1.9-3.2-1.9h-2.4z"/>
</svg>