<svg version="1.2" xmlns="http://www.w3.org/2000/svg" viewBox="0 0 1556 553" width="1556" height="553">
	<title>Richelieu-Logo-Red-R_White-richelieu-svg</title>
	<style>
		.s0 { fill: #e11d06 } 
	</style>
	<g id="Page-1">
		<g id="richelieu-logo-red-white">
			<path id="Fill-1" class="s0" d="m351.9 553h-150l-201.9-197.2v-104.7h133.2c27.5 0 36.1-3.1 36.1-38.1v-75.8c0-35-9.6-38.1-36.1-38.1h-133.2v-99.1h164.8c79.3 0 115.9 37.1 116.4 116.4v116.4c0 79.3-37.1 116.4-116.4 116.4h-30.6c43.3 40.6 217.7 203.3 217.7 203.3"/>
			<g id="Rich-UNI-Horiz-White-RGB">
				<path id="Fill-4" fill-rule="evenodd" class="s0" d="m316.3 123h95.1c36.1 0 72.7 5.6 72.7 57.4 0 42.2-27.5 64.1-57 64.1l62.6 94.5h-67.6l-48.9-85.4h-0.5v85.4h-56.4zm56.9 45.2v42.7h33.1c13.2 0 21.3-9.6 21.3-21.8 0-17.8-10.6-20.9-25.9-20.9zm187.6-39.6c0 17.3-14.7 21.3-34.5 21.3-19.4 0-34.6-3.5-34.6-21.3 0-16.3 13.2-21.3 34.6-21.3 21.3 0 34.5 5 34.5 21.3zm-63.5 29c9.1 3 18.8 5.1 29 5.1 10.6 0 19.8-2.1 29-5.1v181.4h-58zm214.6 72.2c-14.8-16.8-29.5-20.8-43.8-20.8-27.4 0-40.6 14.7-40.6 43.2 0 20.8 10.6 40.6 39.1 40.6 20.4 0 33.6-9.6 45.3-25.9v51.3c-13.8 18.3-35.6 25.4-58.5 25.4-58.5 0-82.4-45.2-82.4-96 0-56.9 27-95.1 87-95.1 18.8 0 38.6 5.1 53.9 20.9zm12.2-115.9h58.5v76.7h0.5c7.1-24.9 26.9-38.1 52.8-38.1 29 0 49.9 16.8 49.9 49.8v136.7h-58.5v-105.2c0-15.7-3.1-26.9-20.3-26.9-20.9 0-25 17.3-25 37.6v94h-57.9zm321.9 162.2q-0.3 0.3-0.6 0.7v-0.7zm-0.5 0.7v42c-12.7 15.7-38.6 25.4-62 25.4-62 0-88-35.1-88-94.6 0-58.4 22.9-97 87.5-97 50.3 0 73.2 33.5 73.2 83.3 0 10.2-0.5 20.9-2 31.5h-106.3c4.1 22.4 21.9 34.1 45.8 34.1 21 0 40.1-8.4 51.8-24.7zm-28.4-50c-1.6-18.3-16.8-27-35.1-27-16.8 0-31.6 11.2-33.1 27zm52.9-112.9h58.5v225.2h-58.5zm145.4 14.7c0 17.3-14.7 21.4-34.5 21.4-19.4 0-34.6-3.6-34.6-21.4 0-16.2 13.2-21.3 34.6-21.3 21.3 0.5 34.5 5.1 34.5 21.3zm-63.5 29c9.1 3.1 18.8 5.1 29 5.1 10.6 0 20.3-2 28.9-5.1v181.5h-58.4v-181.5zm222.2 118.4q-0.3 0.4-0.5 0.7v-0.7zm-0.5 0.7v42c-12.8 15.8-38.7 25.4-62.1 25.4-62 0-87.9-35-87.9-94.5 0-58.4 22.8-97.1 87.4-97.1 50.4 0 73.2 33.6 73.2 83.4 0 10.1-0.5 20.8-2 31.5h-106.3c4.1 22.4 21.9 34 45.8 34 21 0 40.1-8.3 51.9-24.7zm-29-50c-1.5-18.3-16.8-26.9-35.1-26.9-16.8 0-31.5 11.2-33.1 26.9zm156.7 73.2h-0.6c-11.1 31.5-31 44.7-56.4 44.7-29 0-49.8-15.7-49.8-56.4v-130.6h58.4v105.2c0 15.8 4.1 27 20.4 27 17.8 0 24.9-17.3 24.9-37.7v-94.5h58v181.5h-54.9z"/>
			</g>
		</g>
	</g>
</svg>