<svg xmlns="http://www.w3.org/2000/svg" width="206" height="18" viewBox="0 0 206 18" fill="none">
    <path
        d="M49.407 11.6575C49.3454 13.3447 48.0082 14.284 46.3157 14.3584C45.9768 14.3731 45.6373 14.3731 45.2974 14.3584C43.5749 14.284 42.2676 13.3447 42.206 11.6575C42.135 9.72039 42.206 0.376465 42.206 0.376465H37.8296V12.4734C37.8375 15.0193 39.6579 17.1367 42.0719 17.5795C43.2575 17.7961 44.5111 17.9131 45.8073 17.9131C47.1035 17.9131 48.3571 17.7961 49.5428 17.5795C51.9552 17.1367 53.7677 15.0193 53.785 12.4734V0.376465H49.4086C49.4086 0.376465 49.4796 9.72198 49.4086 11.6575H49.407Z"
        fill="#FF6720" />
    <path
        d="M35.8727 5.9395C35.8727 0.404929 30.3264 0.376465 30.3264 0.376465H19.5415V17.6206H24.0411V3.9771H29.027C30.1558 3.9771 31.0716 4.89425 31.0716 6.02489V6.15297C31.0716 7.2836 30.1558 8.20076 29.027 8.20076H24.9821C24.8495 8.20076 24.7753 8.35257 24.8574 8.45693L31.8831 17.6222H37.2321L32.3125 11.4345C36.2864 10.0873 35.8711 5.94266 35.8711 5.94266L35.8727 5.9395Z"
        fill="#FF6720" />
    <path
        d="M67.2766 0.376465H56.4917V17.6206H60.9913V11.7634H67.1313C68.4559 11.7634 69.2627 11.4314 69.2627 11.4314C73.2366 10.0841 72.8213 5.9395 72.8213 5.9395C72.8213 0.404929 67.275 0.376465 67.275 0.376465H67.2766ZM68.0217 6.15139C68.0217 7.28202 67.106 8.19918 65.9772 8.19918H60.9897V3.9771H63.0327H65.9772C67.106 3.9771 68.0217 4.89425 68.0217 6.02489V6.15297V6.15139Z"
        fill="#FF6720" />
    <path
        d="M8.59978 11.1891H13.0583V11.4611C13.0583 13.4884 11.8016 14.0576 8.94396 14.0576C5.69161 14.0576 4.58328 13.365 4.58328 9.01326C4.58328 4.66151 5.69161 3.91988 8.84449 3.91988C11.7511 3.91988 12.6384 4.46385 12.8847 6.51638H17.4427C17.0243 1.96697 14.5598 0.0883789 8.84449 0.0883789C3.1292 0.0883789 0 1.84363 0 9.01484C0 16.1861 2.7345 17.8923 8.84449 17.8923C14.9545 17.8923 17.5169 15.7417 17.5169 10.4491V8.19889H8.5982V11.1907L8.59978 11.1891Z"
        fill="#FF6720" />
    <path
        d="M83.3889 0.0869141C77.2505 0.0869141 74.0945 1.84216 74.0945 9.01338C74.0945 16.1846 76.9505 17.8908 83.3889 17.8908C89.8273 17.8908 92.7086 15.9126 92.7086 9.01338C92.7086 2.11415 89.5526 0.0869141 83.3889 0.0869141ZM83.3889 14.0562C79.8571 14.0562 78.7551 13.3636 78.7551 9.0118C78.7551 4.66005 79.8571 3.91842 83.3889 3.91842C86.9207 3.91842 88.048 4.51141 88.048 9.0118C88.048 13.5122 86.946 14.0562 83.3889 14.0562Z"
        fill="#FF6720" />
    <path d="M97.2073 0.376465H114.072V4.18741H107.89V17.619H103.39V4.18741H97.2073V0.376465Z"
        fill="#FF6720" />
    <path
        d="M171.166 0.376465H185.683V3.99291H175.607V7.21719H183.373V10.7783H175.607V14.001H185.683V17.619H171.166V0.376465Z"
        fill="#FF6720" />
    <path
        d="M150.339 12.4734C150.321 15.0193 148.51 17.1351 146.096 17.5795C144.911 17.7977 143.657 17.9131 142.361 17.9131C141.065 17.9131 139.811 17.7961 138.625 17.5795C136.211 17.1367 134.393 15.0193 134.383 12.4734V0.376465H138.76C138.76 0.376465 138.688 9.72198 138.76 11.6575C138.821 13.3447 140.128 14.284 141.851 14.3584C142.19 14.3731 142.529 14.3731 142.869 14.3584C144.562 14.284 145.899 13.3447 145.96 11.6575C146.032 9.72039 145.96 0.376465 145.96 0.376465H150.337V12.4734H150.339Z"
        fill="#FF6720" />
    <path
        d="M128.868 11.4314C132.842 10.0841 132.426 5.9395 132.426 5.9395C132.426 0.404929 126.88 0.376465 126.88 0.376465H116.095V17.6206H120.595V3.9771H125.581C126.71 3.9771 127.625 4.89425 127.625 6.02489V6.15297C127.625 7.2836 126.71 8.20076 125.581 8.20076H121.536C121.403 8.20076 121.331 8.35257 121.411 8.45693L128.437 17.6222H133.786L128.866 11.4345L128.868 11.4314Z"
        fill="#FF6720" />
    <path
        d="M200.704 11.4314C204.678 10.0841 204.263 5.9395 204.263 5.9395C204.263 0.404929 198.717 0.376465 198.717 0.376465H187.932V17.6206H192.431V3.9771H197.417C198.546 3.9771 199.462 4.89425 199.462 6.02489V6.15297C199.462 7.2836 198.546 8.20076 197.417 8.20076H193.372C193.24 8.20076 193.167 8.35257 193.248 8.45693L200.273 17.6222H205.622L200.703 11.4345L200.704 11.4314Z"
        fill="#FF6720" />
    <path
        d="M169.377 5.9395C169.377 0.404929 163.83 0.376465 163.83 0.376465H153.045V17.6206H157.545V11.7634H163.685C165.01 11.7634 165.816 11.4314 165.816 11.4314C169.79 10.0841 169.375 5.9395 169.375 5.9395H169.377ZM164.577 6.15139C164.577 7.28202 163.661 8.19918 162.532 8.19918H157.545V3.9771H162.532C163.661 3.9771 164.577 4.89425 164.577 6.02489V6.15297V6.15139Z"
        fill="#FF6720" />
  </svg>
